<svg xmlns="http://www.w3.org/2000/svg" viewBox="0 0 512 512">
  <defs>
    <linearGradient id="bg" x1="0%" y1="0%" x2="100%" y2="100%">
      <stop offset="0%" stop-color="#818cf8"/>
      <stop offset="100%" stop-color="#3730a3"/>
    </linearGradient>
  </defs>
  <!-- Full bleed background (maskable — OS applies shape) -->
  <rect width="512" height="512" fill="url(#bg)"/>
  <!-- Content within the 80% safe zone (51–461px on each axis) -->
  <rect x="73" y="100" width="366" height="18" rx="5" fill="white" opacity="0.18"/>
  <!-- Row 1 (y=172) -->
  <circle cx="73"  cy="172" r="22" fill="white" opacity="0.9"/>
  <circle cx="134" cy="172" r="22" fill="white" opacity="0.9"/>
  <circle cx="195" cy="172" r="22" fill="white" opacity="0.9"/>
  <circle cx="256" cy="172" r="22" fill="white" opacity="0.9"/>
  <circle cx="317" cy="172" r="22" fill="white" opacity="0.9"/>
  <circle cx="378" cy="172" r="22" fill="none" stroke="white" stroke-width="3.5" opacity="0.4"/>
  <circle cx="439" cy="172" r="22" fill="none" stroke="white" stroke-width="3.5" opacity="0.4"/>
  <!-- Row 2 (y=256) -->
  <circle cx="73"  cy="256" r="22" fill="none" stroke="white" stroke-width="3.5" opacity="0.4"/>
  <circle cx="134" cy="256" r="22" fill="white" opacity="0.9"/>
  <circle cx="195" cy="256" r="22" fill="white" opacity="0.9"/>
  <circle cx="256" cy="256" r="22" fill="white" opacity="0.9"/>
  <circle cx="317" cy="256" r="22" fill="none" stroke="white" stroke-width="3.5" opacity="0.4"/>
  <circle cx="378" cy="256" r="22" fill="white" opacity="0.9"/>
  <circle cx="439" cy="256" r="22" fill="white" opacity="0.9"/>
  <!-- Row 3 (y=340) -->
  <circle cx="73"  cy="340" r="22" fill="white" opacity="0.9"/>
  <circle cx="134" cy="340" r="22" fill="white" opacity="0.9"/>
  <circle cx="195" cy="340" r="22" fill="white" opacity="0.9"/>
  <circle cx="256" cy="340" r="22" fill="none" stroke="white" stroke-width="3.5" opacity="0.4"/>
  <circle cx="317" cy="340" r="22" fill="none" stroke="white" stroke-width="3.5" opacity="0.4"/>
  <circle cx="378" cy="340" r="22" fill="none" stroke="white" stroke-width="3.5" opacity="0.4"/>
  <circle cx="439" cy="340" r="22" fill="none" stroke="white" stroke-width="3.5" opacity="0.4"/>
</svg>
